<svg width="520" height="520" viewBox="0 0 520 520" fill="none" xmlns="http://www.w3.org/2000/svg">
  <defs>
    <linearGradient id="leaf" x1="162" y1="111" x2="346" y2="405" gradientUnits="userSpaceOnUse">
      <stop stop-color="#E0FF86"/>
      <stop offset="0.52" stop-color="#7BE084"/>
      <stop offset="1" stop-color="#0A6A4F"/>
    </linearGradient>
    <filter id="soft" x="47" y="52" width="426" height="428" filterUnits="userSpaceOnUse" color-interpolation-filters="sRGB">
      <feGaussianBlur stdDeviation="18"/>
    </filter>
  </defs>
  <circle cx="260" cy="260" r="184" fill="#BFFF67" fill-opacity="0.12" filter="url(#soft)"/>
  <path d="M267 70C168 119 112 214 128 312C144 408 240 466 334 424C414 388 440 286 393 198C363 141 315 99 267 70Z" fill="url(#leaf)"/>
  <path d="M257 112C248 202 254 304 318 394" stroke="#F8FFE9" stroke-opacity="0.74" stroke-width="13" stroke-linecap="round"/>
  <path d="M251 250C217 241 184 222 158 194" stroke="#F8FFE9" stroke-opacity="0.3" stroke-width="9" stroke-linecap="round"/>
  <path d="M268 292C317 276 356 251 386 216" stroke="#F8FFE9" stroke-opacity="0.28" stroke-width="9" stroke-linecap="round"/>
  <circle cx="260" cy="260" r="218" stroke="#D8FF9F" stroke-opacity="0.18" stroke-width="2"/>
</svg>
